<svg viewBox="0 0 400 400" xmlns:xlink="http://www.w3.org/1999/xlink" xmlns="http://www.w3.org/2000/svg" id="图层_1"><defs><style>.cls-1{fill:url(#未命名的渐变_33);}.cls-2,.cls-33{fill:#c4c4c4;}.cls-2,.cls-24,.cls-32{opacity:0.6;}.cls-3,.cls-4{fill:#cecece;}.cls-4{opacity:0.5;}.cls-5{fill:#eaeaea;}.cls-6{fill:url(#未命名的渐变_13);}.cls-7{fill:url(#未命名的渐变_13-2);}.cls-8{fill:url(#未命名的渐变_13-3);}.cls-9{fill:url(#未命名的渐变_13-4);}.cls-10{fill:url(#未命名的渐变_13-5);}.cls-11{fill:url(#未命名的渐变_13-6);}.cls-12{fill:url(#未命名的渐变_13-7);}.cls-13{fill:url(#未命名的渐变_13-8);}.cls-14{fill:url(#未命名的渐变_13-9);}.cls-15{fill:url(#未命名的渐变_13-10);}.cls-16{fill:url(#未命名的渐变_13-11);}.cls-17{fill:url(#未命名的渐变_13-12);}.cls-18{fill:url(#未命名的渐变_13-13);}.cls-19{fill:url(#未命名的渐变_13-14);}.cls-20{fill:url(#未命名的渐变_13-15);}.cls-21{fill:url(#未命名的渐变_37);}.cls-22{fill:url(#未命名的渐变_37-2);}.cls-23{fill:url(#未命名的渐变_13-16);}.cls-24{fill:url(#未命名的渐变_13-17);}.cls-25{opacity:0.7;fill:url(#未命名的渐变_13-18);}.cls-26{fill:url(#未命名的渐变_13-19);}.cls-27{fill:url(#未命名的渐变_37-3);}.cls-28{fill:url(#未命名的渐变_37-4);}.cls-29{fill:#adadad;}.cls-30{fill:#e2e2e2;}.cls-31{fill:#f2f2f2;}</style><linearGradient gradientUnits="userSpaceOnUse" y2="388.4" x2="197.18" y1="144.06" x1="211.63" id="未命名的渐变_33"><stop stop-color="#f0eff2" offset="0"></stop><stop stop-opacity="0.95" stop-color="#edecef" offset="0.01"></stop><stop stop-opacity="0.75" stop-color="#e1e0e4" offset="0.08"></stop><stop stop-opacity="0.57" stop-color="#d7d6da" offset="0.16"></stop><stop stop-opacity="0.42" stop-color="#cecdd1" offset="0.23"></stop><stop stop-opacity="0.29" stop-color="#c6c5ca" offset="0.32"></stop><stop stop-opacity="0.18" stop-color="#c0bfc4" offset="0.4"></stop><stop stop-opacity="0.1" stop-color="#bbbac0" offset="0.5"></stop><stop stop-opacity="0.04" stop-color="#b8b7bc" offset="0.62"></stop><stop stop-opacity="0.01" stop-color="#b6b5bb" offset="0.75"></stop><stop stop-opacity="0" stop-color="#b5b4ba" offset="1"></stop></linearGradient><linearGradient gradientUnits="userSpaceOnUse" y2="224.86" x2="41.17" y1="193.65" x1="71.73" id="未命名的渐变_13"><stop stop-color="#f0eff2" offset="0"></stop><stop stop-color="#c6c5cc" offset="1"></stop></linearGradient><linearGradient xlink:href="#未命名的渐变_13" y2="213.22" x2="58.08" y1="211.6" x1="58.65" id="未命名的渐变_13-2"></linearGradient><linearGradient xlink:href="#未命名的渐变_13" y2="222.58" x2="56.41" y1="222.82" x1="57.7" id="未命名的渐变_13-3"></linearGradient><linearGradient xlink:href="#未命名的渐变_13" y2="205.39" x2="313.69" y1="186.09" x1="332.59" id="未命名的渐变_13-4"></linearGradient><linearGradient xlink:href="#未命名的渐变_13" y2="198.19" x2="324.15" y1="197.19" x1="324.5" id="未命名的渐变_13-5"></linearGradient><linearGradient xlink:href="#未命名的渐变_13" y2="203.97" x2="323.11" y1="204.12" x1="323.91" id="未命名的渐变_13-6"></linearGradient><linearGradient xlink:href="#未命名的渐变_13" y2="266.19" x2="359.81" y1="255.05" x1="370.71" id="未命名的渐变_13-7"></linearGradient><linearGradient xlink:href="#未命名的渐变_13" y2="262.03" x2="365.84" y1="261.46" x1="366.05" id="未命名的渐变_13-8"></linearGradient><linearGradient xlink:href="#未命名的渐变_13" y2="265.37" x2="365.25" y1="265.46" x1="365.71" id="未命名的渐变_13-9"></linearGradient><linearGradient xlink:href="#未命名的渐变_13" y2="239.39" x2="301.42" y1="228.25" x1="312.33" id="未命名的渐变_13-10"></linearGradient><linearGradient xlink:href="#未命名的渐变_13" y2="235.24" x2="307.46" y1="234.66" x1="307.66" id="未命名的渐变_13-11"></linearGradient><linearGradient xlink:href="#未命名的渐变_13" y2="238.58" x2="306.86" y1="238.66" x1="307.32" id="未命名的渐变_13-12"></linearGradient><linearGradient xlink:href="#未命名的渐变_13" y2="238.45" x2="79.07" y1="224.08" x1="93.13" id="未命名的渐变_13-13"></linearGradient><linearGradient xlink:href="#未命名的渐变_13" y2="233.09" x2="86.85" y1="232.34" x1="87.11" id="未命名的渐变_13-14"></linearGradient><linearGradient xlink:href="#未命名的渐变_13" y2="237.39" x2="86.08" y1="237.51" x1="86.68" id="未命名的渐变_13-15"></linearGradient><linearGradient gradientUnits="userSpaceOnUse" y2="139.11" x2="150.74" y1="112.48" x1="139.79" id="未命名的渐变_37"><stop stop-color="#f0eff2" offset="0"></stop><stop stop-opacity="0" stop-color="#c6c5cc" offset="1"></stop></linearGradient><linearGradient xlink:href="#未命名的渐变_37" y2="143.39" x2="136.17" y1="128.32" x1="129.97" id="未命名的渐变_37-2"></linearGradient><linearGradient xlink:href="#未命名的渐变_13" y2="162.32" x2="102.19" y1="149.1" x1="114.87" id="未命名的渐变_13-16"></linearGradient><linearGradient xlink:href="#未命名的渐变_13" y2="252.19" x2="128.87" y1="248.04" x1="132.85" id="未命名的渐变_13-17"></linearGradient><linearGradient xlink:href="#未命名的渐变_13" y2="95.25" x2="216.67" y1="85.5" x1="226.03" id="未命名的渐变_13-18"></linearGradient><linearGradient xlink:href="#未命名的渐变_13" y2="204.05" x2="354.56" y1="192.14" x1="365.98" id="未命名的渐变_13-19"></linearGradient><linearGradient xlink:href="#未命名的渐变_37" y2="157.24" x2="324.97" y1="148.35" x1="324.67" id="未命名的渐变_37-3"></linearGradient><linearGradient xlink:href="#未命名的渐变_37" y2="159.09" x2="333.4" y1="155.51" x1="333.28" id="未命名的渐变_37-4"></linearGradient></defs><title>空状态11</title><path d="M5.34,332.71C6.58,233.62,93.48,153.64,200.5,153.64c107.79,0,195.17,81.14,195.17,181.22" class="cls-1"></path><ellipse ry="17.74" rx="19.11" cy="263.93" cx="218.76" class="cls-2"></ellipse><ellipse ry="11.97" rx="14.58" cy="184.25" cx="267.08" class="cls-3"></ellipse><path d="M175.61,168.18c6.65,0,12-4.75,12-10.61a9.55,9.55,0,0,0-.68-3.49,210,210,0,0,0-23.35,2.81c0,.23,0,.45,0,.68C163.58,163.43,169,168.18,175.61,168.18Z" class="cls-3"></path><path d="M105,207.52c15.68,0,28.39-11.81,28.39-26.36a24.94,24.94,0,0,0-4.81-14.67A199.53,199.53,0,0,0,79.1,192C83.57,201.16,93.45,207.52,105,207.52Z" class="cls-4"></path><ellipse ry="13.14" rx="14.16" cy="263.93" cx="101.26" class="cls-5"></ellipse><ellipse ry="7.86" rx="8.47" cy="282.02" cx="290.59" class="cls-5"></ellipse><path d="M59.48,198.39c.62-2.53,1.28-7.54-2.94-8.45a6.26,6.26,0,0,0-7.11,4.35c-.89,2.7-2.08,14.42-2.31,16.8a5.43,5.43,0,0,1-.2,1A10.17,10.17,0,0,1,42.25,218c-3.8,1.94,3.69,13.32,14.45,10.24S68.18,219.19,67.45,211c-.63-7.15-5.85-2.78-7.8-8.18A7.67,7.67,0,0,1,59.48,198.39Z" class="cls-6"></path><path d="M54,221.05a7.92,7.92,0,0,0,1.74-1.42,11.56,11.56,0,0,0,1.42-1.84,12.91,12.91,0,0,0,1-2.12,15,15,0,0,0,.66-2.29,15.77,15.77,0,0,1-.42,2.36,13.27,13.27,0,0,1-.84,2.28,11.66,11.66,0,0,1-1.29,2.09,8.88,8.88,0,0,1-1.79,1.78Z" class="cls-7"></path><path d="M54.11,206.85a21.16,21.16,0,0,0-1,7.59,11.65,11.65,0,0,0,.81,3.67,24,24,0,0,1,1.27,3.75,21.84,21.84,0,0,1,.62,3.94,25.18,25.18,0,0,1-.09,4c-.06.66-.14,1.32-.24,2s-.19,1.25-.25,1.88-.09,1.25-.14,1.9l-.08,1,0,.48,0,.25v.12s0,.08-.11.12l-.77,0c-.15,0-.08-.08-.1-.12V237l0-.49,0-1a16.61,16.61,0,0,1,0-2c.05-.66.16-1.34.27-2s.2-1.25.26-1.88a24,24,0,0,0-.29-7.57,27.47,27.47,0,0,0-1.07-3.68,12.11,12.11,0,0,1-.66-3.94,19.79,19.79,0,0,1,1.52-7.69Z" class="cls-8"></path><path d="M325,189c.39-1.56.79-4.66-1.81-5.22a3.87,3.87,0,0,0-4.4,2.69c-.55,1.67-1.28,8.91-1.43,10.38a3.14,3.14,0,0,1-.12.61,6.32,6.32,0,0,1-2.89,3.66c-2.35,1.2,2.28,8.24,8.93,6.34s7.1-5.6,6.65-10.65c-.39-4.42-3.62-1.72-4.82-5.06A4.77,4.77,0,0,1,325,189Z" class="cls-9"></path><path d="M321.65,203a5.15,5.15,0,0,0,1.08-.88,7,7,0,0,0,.87-1.14,8.37,8.37,0,0,0,.64-1.31,9.49,9.49,0,0,0,.4-1.41,9.12,9.12,0,0,1-.26,1.46,8.26,8.26,0,0,1-.52,1.41,7.83,7.83,0,0,1-.79,1.29,5.79,5.79,0,0,1-1.11,1.1Z" class="cls-10"></path><path d="M321.7,194.25a13,13,0,0,0-.65,4.69,7.2,7.2,0,0,0,.5,2.27,15.09,15.09,0,0,1,.79,2.32,13.33,13.33,0,0,1,.38,2.44,16.68,16.68,0,0,1-.05,2.45c0,.41-.09.82-.16,1.22s-.11.78-.15,1.17-.06.77-.08,1.17l0,.6,0,.3v.23s0,0-.07.07h-.47c-.1,0-.06,0-.07-.07v-.53l0-.6a10.15,10.15,0,0,1,0-1.23,11.94,11.94,0,0,1,.17-1.22c.06-.39.12-.78.16-1.17a15,15,0,0,0-.18-4.68,17.2,17.2,0,0,0-.66-2.27,7.57,7.57,0,0,1-.41-2.44,12.23,12.23,0,0,1,.94-4.75Z" class="cls-11"></path><path d="M366.34,256.74c.22-.9.46-2.69-1-3a2.23,2.23,0,0,0-2.53,1.55,54.78,54.78,0,0,0-.83,6,1.44,1.44,0,0,1-.07.36,3.61,3.61,0,0,1-1.67,2.11c-1.35.69,1.32,4.75,5.16,3.65s4.1-3.23,3.84-6.14c-.23-2.55-2.09-1-2.79-2.92A2.78,2.78,0,0,1,366.34,256.74Z" class="cls-12"></path><path d="M364.4,264.83a2.48,2.48,0,0,0,.62-.51,4.14,4.14,0,0,0,.51-.66,4.3,4.3,0,0,0,.36-.75,4.8,4.8,0,0,0,.24-.82,5.91,5.91,0,0,1-.15.84,5.05,5.05,0,0,1-.3.82,4.35,4.35,0,0,1-.46.74,3.23,3.23,0,0,1-.64.64Z" class="cls-13"></path><path d="M364.43,259.76a7.38,7.38,0,0,0-.37,2.71,4.16,4.16,0,0,0,.29,1.31,10,10,0,0,1,.45,1.34,8.32,8.32,0,0,1,.22,1.4,9.59,9.59,0,0,1,0,1.42c0,.24-.05.47-.09.71s-.07.44-.09.67,0,.44-.05.68l0,.34v.31s0,0,0,0h-.27s0,0,0,0V270a4.21,4.21,0,0,1,0-.71,5.51,5.51,0,0,1,.09-.71c0-.22.07-.45.09-.67a8.43,8.43,0,0,0-.1-2.7,9.83,9.83,0,0,0-.38-1.31,4.59,4.59,0,0,1-.24-1.41,7.09,7.09,0,0,1,.55-2.74Z" class="cls-14"></path><path d="M308,230c.23-.91.46-2.7-1-3a2.23,2.23,0,0,0-2.54,1.55,57.87,57.87,0,0,0-.83,6,1.45,1.45,0,0,1-.07.35,3.59,3.59,0,0,1-1.66,2.11c-1.36.7,1.31,4.75,5.15,3.66s4.1-3.23,3.84-6.15c-.23-2.55-2.09-1-2.78-2.92A2.66,2.66,0,0,1,308,230Z" class="cls-15"></path><path d="M306,238a2.63,2.63,0,0,0,.61-.51,4.06,4.06,0,0,0,.51-.65,4.86,4.86,0,0,0,.37-.76,5.51,5.51,0,0,0,.23-.82,4.88,4.88,0,0,1-.15.85,4.63,4.63,0,0,1-.3.81,4.35,4.35,0,0,1-.46.74,3,3,0,0,1-.64.64Z" class="cls-16"></path><path d="M306,233a7.33,7.33,0,0,0-.37,2.7A4.16,4.16,0,0,0,306,237a8.79,8.79,0,0,1,.45,1.34,8.32,8.32,0,0,1,.22,1.4,9.59,9.59,0,0,1,0,1.42c0,.24-.05.47-.09.71s-.06.44-.09.67,0,.44-.05.68l0,.35,0,.17v.13s0,0,0,0H306c-.05,0,0,0,0,0v-.65c0-.23,0-.47,0-.71a5.51,5.51,0,0,1,.09-.71c0-.22.07-.44.1-.67a8.74,8.74,0,0,0-.11-2.7,9.24,9.24,0,0,0-.38-1.31,4.54,4.54,0,0,1-.24-1.41,7.13,7.13,0,0,1,.55-2.74Z" class="cls-17"></path><path d="M87.49,226.26c.29-1.16.59-3.47-1.35-3.89a2.89,2.89,0,0,0-3.27,2,73.06,73.06,0,0,0-1.07,7.73,1.8,1.8,0,0,1-.09.45,4.66,4.66,0,0,1-2.14,2.73c-1.75.89,1.69,6.13,6.64,4.71s5.29-4.17,5-7.92c-.29-3.29-2.69-1.28-3.59-3.77A3.66,3.66,0,0,1,87.49,226.26Z" class="cls-18"></path><path d="M85,236.69a3.74,3.74,0,0,0,.8-.65,4.91,4.91,0,0,0,.65-.85,6.73,6.73,0,0,0,.48-1,7.56,7.56,0,0,0,.3-1.06,6.74,6.74,0,0,1-.2,1.09,6.59,6.59,0,0,1-.38,1.05,5.63,5.63,0,0,1-.59,1,4.3,4.3,0,0,1-.83.82Z" class="cls-19"></path><path d="M85,230.16a9.89,9.89,0,0,0-.48,3.49,5.4,5.4,0,0,0,.38,1.69,11.22,11.22,0,0,1,.58,1.72,10.15,10.15,0,0,1,.29,1.82,12.43,12.43,0,0,1,0,1.83q0,.45-.12.9c0,.3-.08.58-.11.87s0,.57-.06.88l0,.44,0,.23v.16s0,0,0,.06H85c-.07,0,0,0,0-.06v-.39l0-.45a7,7,0,0,1,0-.91,6.88,6.88,0,0,1,.13-.91c0-.29.08-.58.12-.87a11.27,11.27,0,0,0-.14-3.48,12.54,12.54,0,0,0-.49-1.69,5.7,5.7,0,0,1-.31-1.82,9.22,9.22,0,0,1,.7-3.53Z" class="cls-20"></path><path d="M154.92,126a6.57,6.57,0,0,0-1.61.2c0-.07,0-.13,0-.2a6.53,6.53,0,1,0-13,0v.06a6.53,6.53,0,1,0,4.18,12.1,6.61,6.61,0,0,0,2.74.6,6.4,6.4,0,0,0,3.67-1.13A6.52,6.52,0,1,0,154.92,126Z" class="cls-21"></path><path d="M138.53,136a3.91,3.91,0,0,0-.91.12s0-.08,0-.12a3.7,3.7,0,0,0-7.39,0v0a3.69,3.69,0,1,0,2.37,6.84,3.67,3.67,0,0,0,1.55.35,3.71,3.71,0,0,0,2.08-.64,3.69,3.69,0,1,0,2.29-6.59Z" class="cls-22"></path><polygon points="104.4 156.9 108.57 154.71 107.77 159.36 111.15 162.65 106.48 163.32 104.4 167.55 102.31 163.32 97.64 162.65 101.02 159.36 100.22 154.71 104.4 156.9" class="cls-23"></polygon><polygon points="129.56 250.49 130.87 249.8 130.62 251.26 131.68 252.3 130.22 252.51 129.56 253.84 128.9 252.51 127.44 252.3 128.5 251.26 128.25 249.8 129.56 250.49" class="cls-24"></polygon><polygon points="218.3 91.26 221.38 89.64 220.79 93.07 223.28 95.5 219.84 96 218.3 99.11 216.76 96 213.32 95.5 215.81 93.07 215.22 89.64 218.3 91.26" class="cls-25"></polygon><polygon points="356.55 199.17 360.3 197.2 359.59 201.38 362.62 204.34 358.43 204.95 356.55 208.76 354.67 204.95 350.47 204.34 353.51 201.38 352.79 197.2 356.55 199.17" class="cls-26"></polygon><path d="M328.37,152.45a3.1,3.1,0,0,0-.81.1.34.34,0,0,0,0-.1,3.28,3.28,0,1,0-6.56,0v0a3.28,3.28,0,1,0,2.1,6.08,3.35,3.35,0,0,0,1.38.3,3.3,3.3,0,0,0,1.84-.56,3.28,3.28,0,1,0,2-5.85Z" class="cls-27"></path><path d="M334.77,157.16a1.86,1.86,0,0,0-.33,0v0a1.32,1.32,0,1,0-2.64,0v0a1.31,1.31,0,0,0-1.14,1.3,1.33,1.33,0,0,0,1.32,1.33,1.28,1.28,0,0,0,.67-.19,1.31,1.31,0,0,0,.55.13,1.38,1.38,0,0,0,.75-.23,1.3,1.3,0,0,0,.82.29,1.33,1.33,0,0,0,0-2.65Z" class="cls-28"></path><path d="M300.5,103.91H170.11a4,4,0,0,0-4,4.07v78.7a4,4,0,0,0,4,4.07h45.44l18.36,18.91a1.92,1.92,0,0,0,2.79,0l18.37-18.91H300.5a4,4,0,0,0,3.95-4.07V108A4,4,0,0,0,300.5,103.91ZM196.07,154.23a9.64,9.64,0,1,1,9.64-9.64A9.64,9.64,0,0,1,196.07,154.23Zm39.24,0a9.64,9.64,0,1,1,9.64-9.64A9.63,9.63,0,0,1,235.31,154.23Zm39.23,0a9.64,9.64,0,1,1,9.64-9.64A9.64,9.64,0,0,1,274.54,154.23Z" class="cls-29"></path><path d="M303.44,103.91H173.05a4,4,0,0,0-4,4.07v78.7a4,4,0,0,0,4,4.07h45.44l18.36,18.91a1.92,1.92,0,0,0,2.79,0L258,190.75h45.43a4,4,0,0,0,3.95-4.07V108A4,4,0,0,0,303.44,103.91ZM199,154.23a9.64,9.64,0,1,1,9.64-9.64A9.64,9.64,0,0,1,199,154.23Zm39.24,0a9.64,9.64,0,1,1,9.64-9.64A9.63,9.63,0,0,1,238.25,154.23Zm39.23,0a9.64,9.64,0,1,1,9.64-9.64A9.64,9.64,0,0,1,277.48,154.23Z" class="cls-30"></path><path d="M188.48,208H171.57l.22,11.32a.84.84,0,0,1-1.41,0L151.59,208h-29c-1.1,0-2-1.17-2-2.61V154.91c0-1.44.9-2.61,2-2.61h65.9c1.1,0,2,1.17,2,2.61V205.4C190.48,206.84,189.58,208,188.48,208Z" class="cls-3"></path><path d="M190,206.54H173l.22,11.32a.84.84,0,0,1-1.41,0l-18.79-11.32h-29c-1.1,0-2-1.17-2-2.61V153.44c0-1.44.9-2.61,2-2.61H190c1.11,0,2,1.17,2,2.61v50.49C192,205.37,191.06,206.54,190,206.54Z" class="cls-31"></path><g class="cls-32"><rect rx="1.5" height="4.41" width="23.83" y="162.68" x="130.37" class="cls-33"></rect><rect rx="1.5" height="4.41" width="38.21" y="174.52" x="130.37" class="cls-33"></rect><rect rx="1.5" height="4.41" width="49.65" y="186.37" x="130.37" class="cls-33"></rect></g></svg>